<mxfile host="app.diagrams.net" modified="2024-09-05T15:23:49.613Z" agent="Mozilla/5.0 (X11; Linux x86_64) AppleWebKit/537.36 (KHTML, like Gecko) Chrome/128.0.0.0 Safari/537.36" etag="YsGXFDR7AKLPheoLoL0H" version="24.7.2" type="device">
  <diagram name="Page-1" id="0bEioF01hfs6BxYzvI5F">
    <mxGraphModel dx="1154" dy="639" grid="1" gridSize="10" guides="1" tooltips="1" connect="1" arrows="1" fold="1" page="1" pageScale="1" pageWidth="850" pageHeight="1100" math="0" shadow="0">
      <root>
        <mxCell id="0" />
        <mxCell id="1" parent="0" />
        <mxCell id="sYAdVhiBkVA6yo-4iq_n-4" value="" style="rounded=0;whiteSpace=wrap;html=1;" vertex="1" parent="1">
          <mxGeometry x="160" y="360" width="440" height="280" as="geometry" />
        </mxCell>
        <mxCell id="sYAdVhiBkVA6yo-4iq_n-14" value="" style="edgeStyle=orthogonalEdgeStyle;rounded=0;orthogonalLoop=1;jettySize=auto;html=1;" edge="1" parent="1" source="sYAdVhiBkVA6yo-4iq_n-1" target="sYAdVhiBkVA6yo-4iq_n-13">
          <mxGeometry relative="1" as="geometry" />
        </mxCell>
        <mxCell id="sYAdVhiBkVA6yo-4iq_n-1" value="MNISTnet1" style="rounded=0;whiteSpace=wrap;html=1;" vertex="1" parent="1">
          <mxGeometry x="240" y="420" width="120" height="60" as="geometry" />
        </mxCell>
        <mxCell id="sYAdVhiBkVA6yo-4iq_n-15" value="" style="edgeStyle=orthogonalEdgeStyle;rounded=0;orthogonalLoop=1;jettySize=auto;html=1;" edge="1" parent="1" source="sYAdVhiBkVA6yo-4iq_n-2" target="sYAdVhiBkVA6yo-4iq_n-12">
          <mxGeometry relative="1" as="geometry" />
        </mxCell>
        <mxCell id="sYAdVhiBkVA6yo-4iq_n-2" value="MNISTnet2" style="rounded=0;whiteSpace=wrap;html=1;" vertex="1" parent="1">
          <mxGeometry x="240" y="520" width="120" height="60" as="geometry" />
        </mxCell>
        <mxCell id="sYAdVhiBkVA6yo-4iq_n-3" value="OpNet" style="rounded=0;whiteSpace=wrap;html=1;" vertex="1" parent="1">
          <mxGeometry x="450" y="470" width="120" height="60" as="geometry" />
        </mxCell>
        <mxCell id="sYAdVhiBkVA6yo-4iq_n-5" value="ImageOpNet" style="text;html=1;align=center;verticalAlign=middle;whiteSpace=wrap;rounded=0;" vertex="1" parent="1">
          <mxGeometry x="360" y="370" width="95" height="30" as="geometry" />
        </mxCell>
        <mxCell id="sYAdVhiBkVA6yo-4iq_n-7" value="" style="shape=image;verticalLabelPosition=bottom;labelBackgroundColor=default;verticalAlign=top;aspect=fixed;imageAspect=0;image=https://machinelearningmastery.com/wp-content/uploads/2019/02/sample_image.png;" vertex="1" parent="1">
          <mxGeometry x="-8.881784197001252e-16" y="410" width="80.54" height="80" as="geometry" />
        </mxCell>
        <mxCell id="sYAdVhiBkVA6yo-4iq_n-8" value="" style="shape=image;verticalLabelPosition=bottom;labelBackgroundColor=default;verticalAlign=top;aspect=fixed;imageAspect=0;image=https://programmer.ink/images/think/c080fb939e166165e5f25d63cbf0e86e.jpg;" vertex="1" parent="1">
          <mxGeometry y="510" width="80" height="80" as="geometry" />
        </mxCell>
        <mxCell id="sYAdVhiBkVA6yo-4iq_n-9" value="" style="endArrow=classic;html=1;rounded=0;exitX=1;exitY=0.5;exitDx=0;exitDy=0;entryX=0;entryY=0.5;entryDx=0;entryDy=0;" edge="1" parent="1" source="sYAdVhiBkVA6yo-4iq_n-8" target="sYAdVhiBkVA6yo-4iq_n-2">
          <mxGeometry width="50" height="50" relative="1" as="geometry">
            <mxPoint x="130" y="640" as="sourcePoint" />
            <mxPoint x="180" y="590" as="targetPoint" />
          </mxGeometry>
        </mxCell>
        <mxCell id="sYAdVhiBkVA6yo-4iq_n-10" value="" style="endArrow=classic;html=1;rounded=0;exitX=1;exitY=0.5;exitDx=0;exitDy=0;entryX=0;entryY=0.5;entryDx=0;entryDy=0;" edge="1" parent="1" source="sYAdVhiBkVA6yo-4iq_n-7" target="sYAdVhiBkVA6yo-4iq_n-1">
          <mxGeometry width="50" height="50" relative="1" as="geometry">
            <mxPoint x="130" y="640" as="sourcePoint" />
            <mxPoint x="180" y="590" as="targetPoint" />
          </mxGeometry>
        </mxCell>
        <mxCell id="sYAdVhiBkVA6yo-4iq_n-12" value="3" style="ellipse;whiteSpace=wrap;html=1;aspect=fixed;" vertex="1" parent="1">
          <mxGeometry x="390" y="540" width="20" height="20" as="geometry" />
        </mxCell>
        <mxCell id="sYAdVhiBkVA6yo-4iq_n-13" value="7" style="ellipse;whiteSpace=wrap;html=1;aspect=fixed;" vertex="1" parent="1">
          <mxGeometry x="390" y="440" width="20" height="20" as="geometry" />
        </mxCell>
        <mxCell id="sYAdVhiBkVA6yo-4iq_n-16" value="" style="endArrow=classic;html=1;rounded=0;exitX=1;exitY=0.5;exitDx=0;exitDy=0;entryX=0;entryY=0.25;entryDx=0;entryDy=0;" edge="1" parent="1" source="sYAdVhiBkVA6yo-4iq_n-13" target="sYAdVhiBkVA6yo-4iq_n-3">
          <mxGeometry width="50" height="50" relative="1" as="geometry">
            <mxPoint x="130" y="580" as="sourcePoint" />
            <mxPoint x="180" y="530" as="targetPoint" />
          </mxGeometry>
        </mxCell>
        <mxCell id="sYAdVhiBkVA6yo-4iq_n-17" value="" style="endArrow=classic;html=1;rounded=0;exitX=1;exitY=0.5;exitDx=0;exitDy=0;entryX=0;entryY=0.5;entryDx=0;entryDy=0;" edge="1" parent="1" source="sYAdVhiBkVA6yo-4iq_n-12" target="sYAdVhiBkVA6yo-4iq_n-3">
          <mxGeometry width="50" height="50" relative="1" as="geometry">
            <mxPoint x="130" y="580" as="sourcePoint" />
            <mxPoint x="180" y="530" as="targetPoint" />
          </mxGeometry>
        </mxCell>
        <mxCell id="sYAdVhiBkVA6yo-4iq_n-18" value="" style="endArrow=classic;html=1;rounded=0;exitX=1;exitY=0.5;exitDx=0;exitDy=0;" edge="1" parent="1" source="sYAdVhiBkVA6yo-4iq_n-3">
          <mxGeometry width="50" height="50" relative="1" as="geometry">
            <mxPoint x="600" y="500" as="sourcePoint" />
            <mxPoint x="650" y="500" as="targetPoint" />
          </mxGeometry>
        </mxCell>
        <mxCell id="sYAdVhiBkVA6yo-4iq_n-21" value="62.6" style="ellipse;whiteSpace=wrap;html=1;aspect=fixed;" vertex="1" parent="1">
          <mxGeometry x="650" y="485" width="30" height="30" as="geometry" />
        </mxCell>
      </root>
    </mxGraphModel>
  </diagram>
</mxfile>
